<mxfile host="app.diagrams.net" modified="2023-07-26T07:29:43.911Z" agent="Mozilla/5.0 (X11; Linux x86_64) AppleWebKit/537.36 (KHTML, like Gecko) Chrome/114.0.0.0 Safari/537.36" version="21.6.5" etag="Qu-pdA3FJI4beMxUUTVB" type="github">
  <diagram name="Page-1" id="aZE6p5on3EGt4MyiAl3g">
    <mxGraphModel>
      <root>
        <mxCell id="0" />
        <mxCell id="1" parent="0" />
      </root>
    </mxGraphModel>
  </diagram>
</mxfile>
